<svg xmlns="http://www.w3.org/2000/svg" width="23" height="23" viewBox="0 0 23 23"><defs><style>.a{fill:none;}.b{fill:#95a5b9;}</style></defs><g transform="translate(-814 -1260)"><rect class="a" width="23" height="23" transform="translate(814 1260)"/><g transform="translate(154.008 610)"><path class="b" d="M679.065,663.521h-5.087l2.649-4.226a6.065,6.065,0,1,0-10.269,0l2.65,4.227h-5.087L659.993,673h23Zm-10.942-7.457a3.369,3.369,0,1,1,3.369,3.37A3.373,3.373,0,0,1,668.124,656.064Zm1.1,8.8h.629l1.639,2.617,1.641-2.617h.6l.344,2.7h-5.189Zm-2.2,6.783H662.01l1.136-2.74h4.217Zm.509-4.088H663.7l1.117-2.7h3.044Zm.85,4.088.341-2.74h5.528l.349,2.74Zm6.712-6.783h3.072l1.117,2.7h-3.845Zm.516,4.043h4.232l1.136,2.74h-5.018Z"/><circle class="b" cx="2.022" cy="2.022" r="2.022" transform="translate(669.471 654.042)"/></g></g></svg>