<svg xmlns="http://www.w3.org/2000/svg" width="23" height="23" viewBox="0 0 23 23"><defs><style>.a{fill:none;}.b{fill:#95a5b9;}</style></defs><g transform="translate(-814 -1297)"><rect class="a" width="23" height="23" transform="translate(814 1297)"/><g transform="translate(154 652)"><path class="b" d="M675.286,662.4h-7.739l-6.674,5.6H682.1Z"/><path class="b" d="M665.829,662.536,660,656.707v10.721Z"/><path class="b" d="M677.106,662.6,683,667.442V656.707Z"/><path class="b" d="M671,648l-10.976,7.317,6.574,6.574.585-.491h8.462l.685.563,6.645-6.645Zm1.994,10.147c-.714,0-1.244-.236-1.4-.749a1.848,1.848,0,0,1-1.6.739c-1.02,0-1.742-.715-1.742-2.088,0-1.774,1.131-3.169,2.492-3.169.732,0,1.133.311,1.26.7l.165-.579h1.505l-.7,3.194c-.128.594-.022.775.362.775.7,0,1.248-.9,1.248-2.232,0-1.963-1.393-3.167-3.446-3.167-2.362,0-3.976,1.521-3.977,4.227a3.48,3.48,0,0,0,3.561,3.655,5.419,5.419,0,0,0,2.514-.5l.267,1.047a5.446,5.446,0,0,1-2.849.635,4.659,4.659,0,0,1-4.862-4.848,5.091,5.091,0,0,1,5.363-5.342c2.514,0,4.7,1.4,4.7,4.245C675.862,656.8,674.766,658.147,672.994,658.147Z"/><path class="b" d="M671.035,654.025c-.729,0-1.168,1.055-1.168,1.974,0,.609.2.948.622.948.515,0,.9-.383,1.118-1.4C671.856,654.456,671.64,654.025,671.035,654.025Z"/></g></g></svg>