<svg xmlns="http://www.w3.org/2000/svg" width="23" height="23" viewBox="0 0 23 23"><defs><style>.a{fill:none;}.b{fill:#95a5b9;}</style></defs><g transform="translate(-814 -1377)"><rect class="a" width="23" height="23" transform="translate(814 1377)"/><g transform="translate(154 648)"><path class="b" d="M680,734.167l-.165,0,.019-.019L677,731.293V731H663v12h17Zm-1.559-.019L677,734.13v-1.423ZM679,742H664V732h12v3.118l.988.012,2.012.025Z"/><rect class="b" width="6.5" height="1" transform="translate(666 735)"/><rect class="b" width="11" height="1" transform="translate(666 737)"/><rect class="b" width="11" height="1" transform="translate(666 739)"/><path class="b" d="M660,744v7h23v-7Zm20,5a1,1,0,1,1,1-1A1,1,0,0,1,680,749Z"/></g></g></svg>