<svg xmlns="http://www.w3.org/2000/svg" width="23.002" height="23" viewBox="0 0 23.002 23"><defs><style>.a{fill:none;}.b{fill:#95a5b9;}</style></defs><g transform="translate(-813.998 -1343)"><rect class="a" width="23" height="23" transform="translate(814 1343)"/><g transform="translate(153.996 652.672)"><path class="b" d="M665.055,696.4l1.146,1.72a.786.786,0,0,1-.171,1.055l-1.411,1.1a.782.782,0,0,0-.207,1,17.513,17.513,0,0,0,6.319,6.318.778.778,0,0,0,1-.207l1.1-1.41a.785.785,0,0,1,1.055-.172l1.774,1.183,1.995,1.33a.785.785,0,0,1,.238,1.058l-.945,1.576a1.925,1.925,0,0,1-1.132.874c-1.572.431-5.038.518-10.593-5.037s-5.469-9.022-5.038-10.593a1.928,1.928,0,0,1,.875-1.132l1.576-.945a.786.786,0,0,1,1.058.238Z"/><path class="b" d="M683.12,704.086a.638.638,0,0,1-.638-.637A10.856,10.856,0,0,0,671.638,692.6a.638.638,0,0,1,0-1.276,12.134,12.134,0,0,1,12.12,12.121A.637.637,0,0,1,683.12,704.086Z" transform="translate(-0.756)"/><path class="b" d="M679.293,704.086a.638.638,0,0,1-.638-.637,7.027,7.027,0,0,0-7.017-7.018.638.638,0,1,1,0-1.275,8.3,8.3,0,0,1,8.293,8.293A.638.638,0,0,1,679.293,704.086Z" transform="translate(-0.561)"/><path class="b" d="M675.465,704.086a.638.638,0,0,1-.638-.637,3.193,3.193,0,0,0-3.189-3.19.638.638,0,0,1,0-1.276,4.47,4.47,0,0,1,4.465,4.466A.637.637,0,0,1,675.465,704.086Z" transform="translate(-0.446)"/></g></g></svg>