<svg id="Layer_1" data-name="Layer 1" xmlns="http://www.w3.org/2000/svg" viewBox="0 0 190.01 54.14"><title>Logo SVG white</title><path d="M34.76,23.12C41.23,6.8,30,1.45,26.71.27A4.73,4.73,0,0,0,25.13,0H0V54H13.45l.35-24.2h6.62s5.26-.65,6.13,5.42c-.52,5.05-4.36,5.23-4.36,5.23H16.07V54h10a7.72,7.72,0,0,0,3.64-.9C51.34,41.63,34.76,23.12,34.76,23.12Zm-13.8-2H14.32V13.18h6.91s2.53.55,2.7,4A3.68,3.68,0,0,1,21,21.13Z" style="fill:#fff"/><rect x="44.55" width="14.56" height="53.89" style="fill:#fff"/><rect x="175.45" width="14.56" height="53.89" style="fill:#fff"/><polygon points="100.91 0 100.91 12.97 111.51 12.97 111.51 54.14 125.25 54.14 125.25 12.97 135.97 12.97 135.97 0 100.91 0" style="fill:#fff"/><path d="M157.49,41c-1.15,1.45-3.3,3.08-7.2,3.06-6.88,0-8.38-5.24-8.38-5.24h28.18a19.8,19.8,0,1,0-.67,2.18ZM151,24c6.88,0,8.39,5.24,8.39,5.24H142.61S144,23.93,151,24Z" style="fill:#fff"/><path d="M95.32,14V1.52s-7.1-3.42-18,0c-9,3.71-9,12.86-8.1,18.47a18.89,18.89,0,0,0,3,7c2.29,3.5,5.55,8.73,4.15,11.79-1.73,3.78-6.29,3.3-12.46,1V52.52a28.68,28.68,0,0,0,19.33-.62c10.37-4.1,9.09-14.73,8.27-18-.57-2.31-2.88-6.3-6-9.81a7.49,7.49,0,0,1-1.84-3.63C81.11,7,95.32,14,95.32,14Z" style="fill:#fff"/></svg>